# xmcd
#
# Track frame offsets: 
#        150
#        24007
#        41071
#        60501
#        66566
#        79461
#        100529
#        119841
#        125251
#        137895
#        157934
#        177327
#        200392
#        218892
#        236875
#        252120
#        277207
#        290583
#        307381
#
# Disc length: 4363 seconds
#
# Revision: 0
# Processed by: cddbd v1.5.2PL0 Copyright (c) Steve Scherf et al.
# Submitted via: ExactAudioCopy v0.99pb1
#
DISCID=28110913
DTITLE=Tom Shaka - The Very Best Of
DYEAR=1900
DGENRE=Blues
TTITLE0=Prayin Man Blues
TTITLE1=Long Lonely Road
TTITLE2=Mean Old Southern
TTITLE3=Don´t Fence Me In
TTITLE4=July 2nd Shuffle
TTITLE5=Muleskinner Blues
TTITLE6=Red Hot Kiss
TTITLE7=Oh Susanna
TTITLE8=I Been To Mardi Gras
TTITLE9=Leavin´ Texas Blues
TTITLE10=Ain´t It A Shame
TTITLE11=No More Dirty War Blues
TTITLE12=Goin´To Brownsville
TTITLE13=001 Blues
TTITLE14=Throw A Boogie Woogie
TTITLE15=Sadie
TTITLE16=Resophonic Rag
TTITLE17=Vegie Gumbo
TTITLE18=Blues Blood
EXTD=
EXTT0=
EXTT1=
EXTT2=
EXTT3=
EXTT4=
EXTT5=
EXTT6=
EXTT7=
EXTT8=
EXTT9=
EXTT10=
EXTT11=
EXTT12=
EXTT13=
EXTT14=
EXTT15=
EXTT16=
EXTT17=
EXTT18=
PLAYORDER=
